<svg xmlns="http://www.w3.org/2000/svg" viewBox="0 0 512 512">
  <defs><linearGradient id="g" x1="0" y1="0" x2="1" y2="1"><stop stop-color="#bde5cc"/><stop offset="1" stop-color="#147d70"/></linearGradient></defs>
  <path d="M117 219q20-111 116-111l23-57 29 57q88 9 110 111-28-32-68-39 32 34 23 104-12 96-94 147-83-51-94-147-9-70 23-104-40 7-68 39z" fill="url(#g)" stroke="#26352e" stroke-width="16" stroke-linejoin="round"/>
  <path d="M185 258q31-25 57 4m85-4q-31-25-57 4" fill="none" stroke="#fffdf7" stroke-width="17" stroke-linecap="round"/>
  <path d="m236 318 20 18 20-18" fill="none" stroke="#df7058" stroke-width="16" stroke-linecap="round" stroke-linejoin="round"/>
</svg>
