<svg xmlns="http://www.w3.org/2000/svg" viewBox="0 0 128 128">
  <circle cx="64" cy="69" r="42" fill="#e6eef3" stroke="#537fa9" stroke-width="5"/>
  <path d="M64 9 73 25 67 88h-6l-6-63Z" fill="#344956"/>
  <path d="m64 9 4 16-4 39-4-39Z" fill="#f7fbfd"/>
  <path d="M42 77c7-14 15-21 22-21 8 0 15 7 22 21-6 18-13 27-22 27s-16-9-22-27Z" fill="#fff"/>
  <path d="M64 57c-10 6-15 13-15 21s5 15 15 21c10-6 15-13 15-21s-5-15-15-21Z" fill="#1e2b34"/>
  <circle cx="64" cy="70" r="6" fill="#fff"/>
  <circle cx="64" cy="87" r="6" fill="#1e2b34"/>
</svg>
