<svg xmlns="http://www.w3.org/2000/svg" width="1920" height="1200" viewBox="0 0 1920 1200">
  <defs>
    <linearGradient id="bg" x1="0" y1="0" x2="1" y2="1">
      <stop stop-color="#fffaf0"/>
      <stop offset="1" stop-color="#ffe9a9"/>
    </linearGradient>
    <linearGradient id="sun" x1="0" y1="0" x2="0" y2="1">
      <stop stop-color="#ffd34f" stop-opacity=".24"/>
      <stop offset="1" stop-color="#ef941e" stop-opacity=".04"/>
    </linearGradient>
  </defs>
  <rect width="1920" height="1200" fill="url(#bg)"/>
  <circle cx="1660" cy="195" r="245" fill="url(#sun)"/>
  <path d="M1330 1090c91-200 193-330 305-391 113-62 208-177 285-347v848h-634Z" fill="#3978bd" fill-opacity=".07"/>
  <path d="M0 1010c210-96 403-95 580 3 177 97 379 116 606 57v130H0Z" fill="#ef941e" fill-opacity=".07"/>
  <g fill="none" stroke="#ef941e" stroke-linecap="round" stroke-opacity=".16">
    <path d="M120 230c66-78 145-117 238-117" stroke-width="9"/>
    <path d="M138 276c91-90 199-135 325-135" stroke-width="5"/>
    <path d="M1450 690c67 36 111 87 132 153" stroke-width="8"/>
    <path d="M1491 655c91 45 150 115 178 210" stroke-width="5"/>
  </g>
  <g fill="#3978bd" fill-opacity=".13">
    <circle cx="173" cy="777" r="7"/><circle cx="209" cy="777" r="7"/><circle cx="245" cy="777" r="7"/>
  </g>
</svg>
